<svg xmlns="http://www.w3.org/2000/svg" width="220" height="220" viewBox="0 0 220 220" role="img" aria-labelledby="title desc">
  <title id="title">Sample payment QR scanner</title>
  <desc id="desc">A sample QR-style scanner placeholder for Summer Sloka Camp payments.</desc>
  <rect width="220" height="220" rx="14" fill="#ffffff"/>
  <rect x="12" y="12" width="196" height="196" rx="10" fill="#fffaf1" stroke="#173f3a" stroke-width="4"/>
  <g fill="#173f3a">
    <rect x="28" y="28" width="46" height="46" rx="4"/>
    <rect x="146" y="28" width="46" height="46" rx="4"/>
    <rect x="28" y="146" width="46" height="46" rx="4"/>
    <rect x="39" y="39" width="24" height="24" fill="#fffaf1"/>
    <rect x="157" y="39" width="24" height="24" fill="#fffaf1"/>
    <rect x="39" y="157" width="24" height="24" fill="#fffaf1"/>
    <rect x="83" y="30" width="12" height="12"/>
    <rect x="106" y="30" width="24" height="12"/>
    <rect x="84" y="53" width="35" height="12"/>
    <rect x="130" y="53" width="10" height="22"/>
    <rect x="88" y="84" width="16" height="16"/>
    <rect x="115" y="84" width="42" height="12"/>
    <rect x="169" y="86" width="12" height="35"/>
    <rect x="30" y="92" width="32" height="12"/>
    <rect x="75" y="108" width="14" height="40"/>
    <rect x="100" y="107" width="14" height="14"/>
    <rect x="126" y="111" width="27" height="13"/>
    <rect x="148" y="134" width="44" height="12"/>
    <rect x="88" y="151" width="22" height="12"/>
    <rect x="122" y="149" width="14" height="42"/>
    <rect x="150" y="160" width="14" height="14"/>
    <rect x="178" y="165" width="14" height="27"/>
    <rect x="90" y="178" width="20" height="14"/>
  </g>
  <circle cx="110" cy="110" r="29" fill="#f8b84e" stroke="#173f3a" stroke-width="4"/>
  <text x="110" y="104" text-anchor="middle" font-family="Arial, sans-serif" font-size="15" font-weight="700" fill="#173f3a">UPI</text>
  <text x="110" y="122" text-anchor="middle" font-family="Arial, sans-serif" font-size="10" font-weight="700" fill="#173f3a">SCAN</text>
</svg>
