<svg width="40" height="40" viewBox="0 0 40 40" fill="none" xmlns="http://www.w3.org/2000/svg">
  <path d="M20 35C20 35 32 28 32 18C32 8 20 5 20 5C20 5 8 8 8 18C8 28 20 35 20 35Z" fill="#173f3a"/>
  <path d="M20 5V35" stroke="#f8b84e" stroke-width="2"/>
  <path d="M20 12C24.4183 12 28 15.5817 28 20C28 24.4183 24.4183 28 20 28C15.5817 28 12 24.4183 12 20C12 15.5817 15.5817 12 20 12Z" fill="#f8b84e" fill-opacity="0.2" stroke="#f8b84e" stroke-width="1.5"/>
  <circle cx="20" cy="20" r="4" fill="#f8b84e"/>
</svg>
